<svg xmlns="http://www.w3.org/2000/svg" width="28.904" height="25.912" viewBox="0 0 28.904 25.912">
  <path id="cart-shopping-solid" d="M0,1.215A1.212,1.212,0,0,1,1.215,0h2.3A2.834,2.834,0,0,1,6.078,1.619h20.8A2.023,2.023,0,0,1,28.832,4.17l-2.075,7.708a3.649,3.649,0,0,1-3.517,2.7H8.639l.273,1.442A1.219,1.219,0,0,0,10.107,17H24.7a1.215,1.215,0,0,1,0,2.429H10.107a3.64,3.64,0,0,1-3.578-2.961L3.917,2.758a.4.4,0,0,0-.4-.329h-2.3A1.212,1.212,0,0,1,0,1.215ZM6.478,23.483a2.429,2.429,0,1,1,2.429,2.429A2.429,2.429,0,0,1,6.478,23.483Zm17-2.429a2.429,2.429,0,1,1-2.429,2.429A2.429,2.429,0,0,1,23.483,21.053Z" fill="#583a3a"/>
</svg>
